<?xml version="1.0" encoding="utf-8"?>
<!-- Generator: Adobe Illustrator 27.0.0, SVG Export Plug-In . SVG Version: 6.00 Build 0)  -->
<svg version="1.1" id="Layer_1" xmlns="http://www.w3.org/2000/svg" xmlns:xlink="http://www.w3.org/1999/xlink" x="0px" y="0px"
	 viewBox="0 0 860 320" style="enable-background:new 0 0 860 320;" xml:space="preserve">
<style type="text/css">
	.st0{fill:#7A0708;}
</style>
<g>
	<g id="I675it.tif_00000152237775259737037660000013893957833510233273_">
		<g>
			<g>
				<path class="st0" d="M194.79,308.65c-11.43-2.78-22.97-4.89-34.69-5.98c-15.23-1.42-30.32-0.5-45.27,2.72
					c-4.95,1.07-9.88,2.19-14.67,3.89c-1.27,0.45-2.46,0.46-3.75,0.04c-17.33-5.54-35.11-8.07-53.27-7.14
					c-12.95,0.66-25.74,2.66-38.36,5.74c-0.82,0.2-1.62,0.54-2.53,0.37c-0.47-0.92,0.32-1.43,0.7-2.01
					c7.45-11.34,14.94-22.66,22.39-34.01c0.9-1.37,2.01-2.15,3.64-2.57c8.26-2.08,16.64-3.43,25.13-3.91
					c2.37-0.13,3.04-0.83,3.03-3.16c-0.08-17.96-0.04-35.92-0.04-53.88c0-40.22,0-80.44,0-120.66c0-3.66-0.01-3.66-3.68-3.66
					c-2.83,0-5.67-0.09-8.5,0.02c-2.04,0.08-2.84-0.79-2.68-2.74c0.04-0.51,0.05-1.04-0.01-1.55c-0.28-2.44,0.71-3.4,3.21-3.27
					c3.17,0.17,6.35-0.05,9.53,0.07c1.81,0.07,2.58-0.52,2.84-2.37c1.33-9.44,4.29-18.37,8.77-26.79
					c6.2-11.64,14.56-21.42,25.36-29.02c1.76-1.24,2.49-2.56,2.41-4.68c-0.13-3.43,0.02-6.87-0.05-10.31
					c-0.04-1.92,0.61-2.75,2.68-2.76c5.08-0.02,5.08-0.11,5.08,4.98c0,2.49,0.16,5-0.05,7.47c-0.21,2.53,0.76,4.06,2.79,5.54
					c14.77,10.73,24.99,24.84,30.73,42.17c1.43,4.32,2.52,8.76,3.07,13.28c0.25,2.07,1.22,2.53,3.04,2.48
					c3.26-0.09,6.53,0.06,9.79-0.05c2.02-0.07,2.87,0.74,2.71,2.72c-0.03,0.34,0,0.69,0,1.03c0,3.74-0.01,3.75-3.69,3.76
					c-3,0.01-6.01,0.05-9.01-0.01c-1.53-0.03-2.25,0.56-2.13,2.12c0.04,0.6,0,1.2,0,1.8c0,57.84,0,115.68,0,173.51
					c0,3.74,0.01,3.62,3.75,3.92c8.39,0.67,16.68,1.96,24.85,4.04c1.58,0.4,2.45,1.42,3.27,2.67c7.86,11.89,15.74,23.77,23.62,35.66
					C194.79,308.3,194.79,308.47,194.79,308.65z M185.1,301.15c-0.51-0.82-0.79-1.34-1.12-1.8c-5.34-7.37-10.72-14.71-15.99-22.14
					c-1.12-1.58-2.46-2.47-4.28-2.98c-10.84-3.08-21.85-4.02-33.09-3.25c-10.56,0.72-20.97,2.15-31.1,5.3
					c-0.84,0.26-1.64,0.35-2.51,0.07c-10.28-3.27-20.87-4.67-31.6-5.39c-11.16-0.75-22.08,0.26-32.83,3.3
					c-1.74,0.49-3.06,1.38-4.1,2.86c-2.76,3.93-5.62,7.8-8.43,11.7c-2.87,3.98-5.73,7.97-8.93,12.44
					c11.04-2.91,21.65-4.41,32.35-4.97c17.86-0.93,35.49,0.61,52.56,6.41c1.56,0.53,2.93,0.46,4.47-0.05
					c21.18-7.04,42.87-7.87,64.83-5.18C171.86,298.27,178.32,299.55,185.1,301.15z M77.47,160.63c0,24.32-0.01,48.64,0.03,72.97
					c0,1.08-0.65,2.68,1.02,3.06c1.28,0.28,2.95,0.71,3.93-0.34c1-1.07-0.4-2.17-0.77-3.25c-0.11-0.32-0.3-0.62-0.44-0.93
					c-3.28-6.96-2.08-13.07,3.71-18.08c1.21-1.05,1.79-2.2,2.01-3.7c0.71-4.75,1.42-9.51,2.23-14.24c0.87-5.06,1.3-10.27,4.74-14.51
					c0.37-0.46,0.37-1.31,0.37-1.98c0.02-26.81,0.01-53.63,0.04-80.44c0-1.59-0.55-2.45-2.1-3.06c-4.35-1.7-7.65-4.67-9.24-9.12
					c-0.76-2.12-1.92-2.85-4.01-2.54c-2.37,0.36-1.47,2.23-1.47,3.47C77.45,112.15,77.47,136.39,77.47,160.63z M118.9,160.8
					c0-24.4,0.01-48.8-0.03-73.2c0-1.13,0.7-2.82-1.28-3.11c-1.75-0.26-3.25-0.2-4.01,2.09c-1.5,4.59-4.82,7.68-9.24,9.44
					c-1.75,0.7-2.3,1.66-2.3,3.45c0.04,26.55,0.03,53.1,0.02,79.64c0,1.22,0.13,2.33,0.95,3.37c1.85,2.35,2.76,5.13,3.25,8.04
					c1.1,6.6,2.12,13.21,3.18,19.82c0.19,1.18,0.38,2.31,1.46,3.16c7.78,6.14,7.34,13.68,3.86,19.91c-0.48,0.86-1.5,1.79-0.91,2.79
					c0.67,1.13,2.04,0.49,3.1,0.56c2.42,0.18,1.94-1.65,1.94-3.02C118.9,209.43,118.9,185.11,118.9,160.8z M102.06,247.98
					c0,6.69,0.02,13.38-0.02,20.07c-0.01,1.72,0.47,2.36,2.27,1.73c4.13-1.44,8.35-2.55,12.71-3.09c1.57-0.19,1.89-1.16,1.88-2.52
					c-0.03-3.43-0.01-6.86-0.01-10.29c0-3.82-0.01-3.94-3.93-3.85c-2.21,0.05-3.1-0.84-3.27-2.93c-0.13-1.62-0.43-3.23-0.68-4.83
					c-0.21-1.31-0.75-2.25-2.33-2.14c-1.17,0.08-2.2-0.15-2.59-1.55c-0.38-1.36,0.34-2.1,1.31-2.76c1.85-1.25,2.57-2.86,1.78-5.07
					c-0.28-0.79-0.38-1.68-0.42-2.53c-0.2-3.65-2.96-2.23-4.81-2.39c-2.16-0.19-1.88,1.52-1.88,2.86
					C102.05,235.11,102.06,241.54,102.06,247.98z M94.3,248.3c0-6.69,0.01-13.38-0.01-20.07c0-1,0.17-2.32-1.3-2.36
					c-1.65-0.04-3.95-0.95-4.8,0.62c-1,1.86-1.13,4.28-1.29,6.48c-0.1,1.39,1.34,2.1,2.32,2.89c0.91,0.73,1.67,1.38,1.23,2.77
					c-0.45,1.42-1.48,1.55-2.62,1.48c-1.51-0.09-2.18,0.62-2.38,2.04c-0.25,1.87-0.6,3.72-0.88,5.58c-0.22,1.48-0.9,2.36-2.53,2.24
					c-0.77-0.06-1.55,0.05-2.31-0.01c-1.64-0.12-2.32,0.54-2.29,2.23c0.07,3.94,0.08,7.89,0,11.84c-0.03,1.72,0.68,2.45,2.34,2.69
					c4.08,0.58,8.07,1.56,11.95,2.95c1.93,0.69,2.62,0.3,2.6-1.82C94.26,261.34,94.3,254.82,94.3,248.3z M70.67,175.08
					c0,28.96-0.01,57.92,0.04,86.89c0,1.25-0.91,3.52,1.25,3.5c1.93-0.02,1.06-2.2,1.06-3.4c0.05-58.01,0.05-116.02,0-174.03
					c0-1.19,0.88-3.38-1.08-3.37c-2.14,0.01-1.22,2.28-1.22,3.53C70.65,117.15,70.67,146.12,70.67,175.08z M123.3,174.8
					c0,29.14-0.01,58.27,0.04,87.41c0,1.15-0.92,3.32,1.19,3.27c1.95-0.05,1.16-2.17,1.16-3.38c0.04-58.02,0.04-116.03,0-174.05
					c0-1.21,0.78-3.38-1.14-3.38c-2.14,0-1.22,2.25-1.22,3.49C123.29,117.04,123.3,145.92,123.3,174.8z M63,174.84
					c0,29.13-0.01,58.25,0.03,87.38c0,1.05-0.64,2.86,1.18,2.85c1.77-0.01,1.04-1.79,1.24-2.87c0.03-0.17,0-0.34,0-0.51
					c0-57.91,0.01-115.82-0.04-173.72c0-1.19,0.81-3.33-1.22-3.32c-2.04,0.02-1.15,2.16-1.15,3.34C62.99,116.93,63,145.89,63,174.84
					z M133.36,174.85c0-29.21,0.01-58.42-0.02-87.63c0-0.99,0.54-2.61-1.16-2.63c-1.68-0.03-1.12,1.58-1.27,2.59
					c-0.04,0.25-0.01,0.51-0.01,0.77c0,57.91-0.01,115.81,0.04,173.72c0,1.21-0.77,3.34,1.19,3.36c2.05,0.02,1.18-2.13,1.18-3.31
					C133.37,232.76,133.36,203.81,133.36,174.85z M102.14,30.55c-1.01,3.76,0.85,5.66,3.96,7.31c4.37,2.31,7.81,5.88,10.88,9.73
					c6.28,7.87,10.06,16.93,12.51,26.61c0.29,1.14,0.21,3.09,2.05,2.61c1.88-0.5,0.6-2.16,0.4-3.22c-1.03-5.5-2.66-10.85-4.68-16.06
					c-4.43-11.47-10.37-21.91-20.69-29.2c-1.23-0.87-2.65-2.59-3.94-1.98C101.23,27.01,102.37,29.15,102.14,30.55z M94.31,31.46
					c0-1.48-0.06-2.34,0.01-3.19c0.18-2.32-0.59-2.49-2.42-1.31c-3.63,2.35-6.95,5.01-9.82,8.26c-6.12,6.93-10.28,14.98-13.43,23.59
					c-1.89,5.17-3.37,10.46-4.44,15.86c-0.14,0.73-0.43,1.6,0.49,2.05c0.33,0.16,0.91,0.14,1.21-0.06c0.69-0.45,0.8-1.27,0.98-2.03
					c1.04-4.35,2.36-8.61,4.13-12.72c4.22-9.83,10.01-18.49,19.37-24.07C93.33,36.08,95.21,34.43,94.31,31.46z M103.43,42.01
					c-1.3-0.2-1.32,0.58-1.34,1.26c-0.04,1.63,0.09,3.27-0.06,4.89c-0.18,1.95,0.65,3.16,2.18,4.29
					c8.08,5.97,14.81,13.02,17.74,22.99c0.3,1.03,0.93,1.73,2.06,1.42c1.35-0.38,0.62-1.45,0.43-2.13
					c-1.69-6.14-3.95-12.07-7.02-17.66c-3.05-5.54-6.64-10.64-12.16-14.04C104.59,42.62,103.9,42.27,103.43,42.01z M94.31,47.03
					c0-1.27,0.01-2.04,0-2.81c-0.05-2.57-0.46-2.85-2.59-1.53c-2.71,1.67-5.16,3.66-7.19,6.15c-6.25,7.66-9.78,16.64-12.58,25.97
					c-0.2,0.65-0.9,1.77,0.53,2.07c1.17,0.24,1.71-0.5,2.01-1.51c2.82-9.37,8.96-16.3,16.55-22.02C93.48,51.5,95,49.67,94.31,47.03z
					 M102.07,61.27c-0.52,2.2,0.57,3.47,2.99,4.44c3.86,1.56,6.65,4.48,8.27,8.39c0.3,0.71,0.53,1.47,0.93,2.12
					c0.54,0.89,1.49,0.84,2.31,0.57c1-0.34,0.48-1.15,0.26-1.73c-2.56-6.88-6.89-12.4-12.84-16.66c-1.2-0.85-1.91-0.59-1.92,0.97
					C102.07,59.89,102.07,60.4,102.07,61.27z M94.31,61.5c0-2.97-0.06-3.47-0.59-3.49c-1.11-0.03-1.83,0.83-2.63,1.43
					c-5.3,3.95-8.92,9.16-11.37,15.24c-0.26,0.65-1.14,1.68,0.2,2.13c1.01,0.34,2.05,0.15,2.49-1.13c0.22-0.65,0.53-1.26,0.81-1.89
					c1.67-3.78,4.4-6.59,8.17-8.13C93.64,64.75,94.85,63.61,94.31,61.5z M102.52,189.52c-0.16,0.02-0.31,0.04-0.47,0.06
					c0,5.29,0,10.59,0,15.88c0,1.11,0.01,2.22,0.03,3.34c0.03,2.08,1.79,2,2.97,1.97c1.5-0.04,0.77-1.35,0.65-2.19
					c-0.4-2.79-0.8-5.58-1.27-8.36C103.83,196.65,103.16,193.09,102.52,189.52z M94.29,189.6c-0.11-0.02-0.23-0.04-0.34-0.06
					c-0.16,0.56-0.37,1.11-0.46,1.68c-0.93,5.76-1.86,11.52-2.72,17.29c-0.12,0.81-1.16,2.3,0.74,2.29c1.25-0.01,2.82-0.15,2.8-2.22
					C94.26,202.26,94.29,195.93,94.29,189.6z M102.06,218.3c0.01,0,0.02,0,0.03,0c0,0.94-0.02,1.88,0.01,2.82
					c0.02,0.83,0.27,1.43,1.22,1.69c3.45,0.94,4.72-0.16,4.13-3.66c-0.16-0.93-0.26-1.86-0.47-2.78c-0.44-1.87-2.05-2.32-3.55-2.35
					c-1.88-0.03-1.18,1.68-1.34,2.74C101.99,217.27,102.06,217.79,102.06,218.3z M94.3,218.33c0-0.6,0.01-1.19,0-1.79
					c-0.06-2.69-0.85-3.17-3.28-1.99c-1.27,0.61-2.85,6.37-2.08,7.63c0.12,0.2,0.33,0.39,0.54,0.51c2.31,1.29,4.79-0.16,4.82-2.82
					C94.31,219.35,94.31,218.84,94.3,218.33z M102.05,88.39c0.25,0.85-0.59,2.34,0.57,2.85c1.04,0.46,1.95-0.76,2.86-1.37
					c1.4-0.93,2.31-2.27,3.04-3.73c0.29-0.57,0.7-1.23-0.34-1.66C104.86,83.12,102.06,84.8,102.05,88.39z M105.39,76.93
					c0.67,0,1.18-0.03,1.69,0c1.77,0.11,2.13-0.59,1.29-2.11c-1.01-1.84-2.46-3.24-4.25-4.29c-0.57-0.33-1.45-0.82-1.75,0.07
					c-0.59,1.79-0.63,3.75-0.02,5.5C102.84,77.53,104.45,76.71,105.39,76.93z M94.28,87.75c-0.29-0.94,0.77-2.88-1.22-3.17
					c-1.77-0.26-4.33-1.07-5.28,0.48c-0.83,1.36,1.26,2.93,2.38,4.18c0.56,0.63,1.31,1.11,2.04,1.56c1.13,0.7,1.98,0.58,2.07-0.99
					C94.31,89.21,94.28,88.61,94.28,87.75z M90.66,77c1.04-0.5,2.96,0.75,3.43-1.11c0.45-1.77,1.05-4.33-0.34-5.37
					c-1.52-1.13-2.84,1.15-4.12,2.15c-0.26,0.2-0.45,0.52-0.65,0.8c-0.65,0.89-1.75,1.83-1.3,2.91C88.14,77.49,89.54,76.72,90.66,77
					z M77.42,243.47c0.31,1.13-0.62,2.77,1.31,3.14c0.87,0.17,2,0.36,2.41-0.8c0.34-0.95,0.48-1.98,0.62-2.99
					c0.36-2.58-0.1-2.97-2.67-2.68C76.7,240.41,77.76,242.25,77.42,243.47z M118.88,243.57c0-1.8,0.4-3.6-2.24-3.46
					c-1.45,0.08-2.5,0.53-2.04,2.06c0.48,1.61-0.74,4.33,2.39,4.48C119.59,246.78,118.68,244.71,118.88,243.57z"/>
				<path class="st0" d="M97.92,318.96c-6.63-2.78-13.67-3.88-20.69-4.97c-14.57-2.25-29.26-1.98-43.91-1.45
					c-9.13,0.33-18.33,0.98-27.11,4.07c-1.32,0.46-4.38-2.18-4.18-3.55c0.15-1,1.12-0.98,1.8-1.19c5.34-1.67,10.85-2.57,16.38-3.25
					c11.33-1.4,22.73-2.01,34.14-1.57c14.35,0.55,28.54,2.25,42.2,7.02c1.2,0.42,2.25,0.39,3.47-0.01
					c10.81-3.57,21.97-5.22,33.29-6.13c8.06-0.64,16.12-0.63,24.17-0.36c10.88,0.36,21.73,1.35,32.34,4.02
					c1,0.25,1.97,0.58,2.96,0.87c1.24,0.35,1.43,0.99,0.73,2.08c-1.22,1.9-2.18,3.19-5.06,2.11c-5.8-2.17-12.02-2.68-18.17-3.21
					c-12.25-1.05-24.52-0.83-36.78-0.46c-10.03,0.31-20,1.53-29.72,4.23c-1.64,0.46-3.22,1.16-4.83,1.75
					C98.61,318.96,98.27,318.96,97.92,318.96z"/>
				<path class="st0" d="M52.46,284.29c-1.42,2.32-2.52,4.13-3.65,5.93c-0.36,0.58-0.69,1.24-1.21,1.64
					c-0.88,0.68-2.11,0.74-2.92,0.2c-1.05-0.7,0.04-1.51,0.43-2.16c1.73-2.87,3.47-5.73,5.31-8.52c1.13-1.71,0.68-3.15-0.64-4.34
					c-1.31-1.18-2.34-0.43-3.14,0.82c-0.25,0.39-0.57,0.68-1.06,0.49c-0.65-0.25-0.53-0.8-0.43-1.31c0.35-1.79,1.43-2.95,3.18-3.31
					c1.89-0.39,3.16,0.65,3.91,2.25c1.42,3.05,2.05,6.36,3.05,9.55c0.28,0.9,0.49,1.86,1,2.63c0.88,1.33,2.05,1.92,3.31,0.38
					c0.4-0.49,0.76-1.11,1.42-0.68c0.67,0.44,0.51,1.24,0.28,1.89c-0.48,1.39-1.36,2.37-2.93,2.52c-1.72,0.16-3.11-0.48-3.81-2.05
					C53.8,288.5,53.3,286.69,52.46,284.29z"/>
				<path class="st0" d="M75.62,292.25c-2.14-0.09-4.11-0.56-5.75-1.97c-2.39-2.05-2.76-5.01-0.94-7.56
					c2.69-3.78,8.89-4.8,12.67-2.08c3.14,2.26,3.47,6.13,0.71,8.88C80.46,291.35,78.13,292.07,75.62,292.25z M75.76,280.99
					c-2.08,0.01-3.82,1.84-3.83,4.03c-0.02,2.71,2.02,5.24,4.26,5.29c2.18,0.05,4.01-2.05,3.94-4.51
					C80.05,283.16,78.07,280.98,75.76,280.99z"/>
				<path class="st0" d="M118.08,291.27c-4.31,0.01-7.56-2.24-7.84-5.44c-0.28-3.23,2.75-6.51,6.75-7.24
					c0.83-0.15,1.7-0.3,2.54-0.23c4.17,0.32,7.32,3.09,7.25,6.28C126.7,288.29,122.81,291.26,118.08,291.27z M114.52,284.52
					c0.02,2.97,1.79,4.97,4.36,4.92c2.26-0.04,3.66-1.7,3.64-4.32c-0.02-2.91-1.65-4.74-4.21-4.74
					C115.94,280.37,114.5,281.95,114.52,284.52z"/>
				<path class="st0" d="M143.31,277.58c1.91,0.16,3.64,0.29,5.17,1.14c1.05,0.58,1.86,1.5,1.02,2.72c-0.88,1.28-1.7,0.42-2.53-0.28
					c-2.79-2.35-7.49-1.66-9.19,1.31c-1.07,1.87-0.71,3.18,1.32,3.8c1.79,0.55,3.69,0.7,5.52,1.1c1.64,0.36,3.25,0.97,3.64,2.82
					c0.36,1.72-0.73,2.95-2.03,3.87c-1.6,1.13-3.4,1.01-5.17,0.48c-0.61-0.18-0.93-0.77-0.68-1.46c0.25-0.68,0.79-0.86,1.46-0.65
					c0.41,0.13,0.79,0.36,1.2,0.45c1.28,0.29,2.29-0.11,2.55-1.45c0.27-1.42-0.78-1.7-1.91-1.78c-1.96-0.14-3.94-0.19-5.88-0.48
					c-4.16-0.63-5.5-3.83-3-7.3C136.91,278.97,140.07,277.96,143.31,277.58z"/>
				<path class="st0" d="M98.09,286.01c0.83-1.85,1.61-3.64,2.43-5.4c0.37-0.8,0.87-1.5,1.9-1.49c0.67,0.01,1.48-0.21,1.92,0.4
					c0.39,0.54-0.06,1.16-0.36,1.67c-0.92,1.55-1.83,3.11-2.83,4.61c-1.63,2.46-3.04,4.95-2.61,8.11c0.15,1.14-0.32,2.22-1.5,2.76
					c-0.68,0.31-1.38,0.21-1.91-0.32c-0.96-0.96-0.75-2.25-0.2-3.12c1.95-3.07,1.09-6.12,0.2-9.17c-0.49-1.68-1.32-3.07-3.18-1.12
					c-0.4,0.42-0.87,0.63-1.36,0.26c-0.47-0.35-0.41-0.92-0.27-1.43c0.34-1.32,0.99-2.39,2.46-2.66c1.51-0.28,2.71,0.16,3.52,1.51
					C97.29,282.26,97.39,284.2,98.09,286.01z"/>
			</g>
		</g>
	</g>
	<g>
		<path class="st0" d="M321.08,130.06l-10.98,10.86c-6.95-7.35-15.04-11.02-24.29-11.02c-8.06,0-14.81,2.67-20.25,8.02
			c-5.44,5.34-8.16,11.84-8.16,19.48c0,7.91,2.82,14.61,8.47,20.1c5.65,5.49,12.61,8.24,20.9,8.24c5.39,0,9.93-1.13,13.63-3.4
			c3.7-2.26,6.68-5.81,8.95-10.63h-23.72v-14.64h41.2l0.11,3.45c0,7.16-1.86,13.96-5.57,20.38c-3.71,6.42-8.52,11.32-14.42,14.7
			c-5.9,3.38-12.82,5.07-20.77,5.07c-8.5,0-16.08-1.85-22.74-5.54c-6.66-3.69-11.93-8.95-15.81-15.78
			c-3.88-6.83-5.82-14.2-5.82-22.1c0-10.84,3.58-20.26,10.74-28.28c8.5-9.54,19.56-14.31,33.18-14.31c7.13,0,13.79,1.32,19.99,3.95
			C310.95,120.81,316.07,124.64,321.08,130.06z"/>
		<path class="st0" d="M345.17,116.69h16.52c9.04,0,15.49,0.81,19.32,2.42c3.84,1.61,6.92,4.3,9.26,8.04
			c2.34,3.75,3.5,8.18,3.5,13.31c0,5.38-1.29,9.88-3.87,13.5c-2.58,3.62-6.47,6.36-11.66,8.21l19.4,36.41H380.6l-18.42-34.68h-1.43
			v34.68h-15.59V116.69z M360.76,148.71h4.88c4.96,0,8.37-0.65,10.24-1.95c1.87-1.3,2.8-3.46,2.8-6.48c0-1.79-0.46-3.34-1.39-4.66
			c-0.93-1.32-2.17-2.27-3.72-2.85s-4.4-0.87-8.55-0.87h-4.27V148.71z"/>
		<path class="st0" d="M413.46,116.69h15.48v81.89h-15.48V116.69z"/>
		<path class="st0" d="M450.95,116.69h15.48v81.89h-15.48V116.69z"/>
		<path class="st0" d="M519.2,116.69h45.26v15.37h-14.92v66.53h-15.81v-66.53H519.2V116.69z"/>
		<path class="st0" d="M599.03,116.69h15.81l31.5,81.89h-16.2l-6.41-16.87h-33.42l-6.66,16.87h-16.2L599.03,116.69z M607.04,138.41
			l-10.99,28.11h21.91L607.04,138.41z"/>
		<path class="st0" d="M660.63,116.69h15.48v81.89h-15.48V116.69z"/>
		<path class="st0" d="M698.62,116.69h16.54c8.94,0,15.39,0.83,19.35,2.48c3.95,1.65,7.07,4.32,9.35,8.02
			c2.28,3.69,3.42,8.12,3.42,13.28c0,5.72-1.49,10.47-4.48,14.25c-2.99,3.79-7.04,6.42-12.16,7.91c-3.01,0.85-8.48,1.28-16.42,1.28
			v34.68h-15.59V116.69z M714.21,148.71h4.96c3.9,0,6.61-0.28,8.13-0.84c1.52-0.56,2.72-1.48,3.59-2.76s1.31-2.84,1.31-4.66
			c0-3.17-1.22-5.47-3.67-6.93c-1.78-1.08-5.09-1.62-9.91-1.62h-4.4V148.71z"/>
		<path class="st0" d="M763.54,116.69h44.71v15.25h-29.23v14.81h29.23v14.98h-29.23v21.54h29.23v15.31h-44.71V116.69z"/>
		<path class="st0" d="M828.62,116.69h15.48v81.89h-15.48V116.69z"/>
	</g>
</g>
</svg>
